# xmcd
#
# Track frame offsets:
#	150
#	10987
#	26525
#	37412
#	54262
#	66762
#	81575
#	93537
#	110575
#	120937
#	131450
#	143625
#	159537
#	173662
#	187512
#	202637
#	212187
#	228062
#	240725
#	253462
#
# Disc length: 3507 seconds
#
# Revision: 1
# Processed by: cddbd v1.5.1PL0 Copyright (c) Steve Scherf et al.
# Submitted via: audiograbber 1.83.01
#
DISCID=0a0db114
DTITLE=Various Artist - Country and Western Specials
DYEAR=1996
DGENRE=
TTITLE0=Neil Diamond - Kentucky Woman
TTITLE1=Ray Stevens - Indian Love Call
TTITLE2=The Shaklefords - Muddy, Muddy River
TTITLE3=Johnny Rivers - Where Have All The Flowers Gone
TTITLE4=Sammy Davis Jr -  What I´ve Got On Mind
TTITLE5=Bobby Vinton - The Last Rose
TTITLE6=Dean Martin - Houston
TTITLE7=Neil Diamond - Shilo
TTITLE8=Bobby Darin - 18 Yellow Roses
TTITLE9=Orion - Lover Please
TTITLE10=Joe Tex - Skip A Rope
TTITLE11=New Christy Minstrels - Cotton Fields
TTITLE12=Ray Stevens - The Streak
TTITLE13=Johnny Rivers - Muddy Water
TTITLE14=Sammy Davis Jr. - Come Sundown
TTITLE15=The Shaklefords - Fife Feet High And Risin´
TTITLE16=Dean Martin - Detroit City
TTITLE17=Nat King Cole - Ramblin´ Rose
TTITLE18=Ray Stevens - Misty
TTITLE19=The Shaklefords with Lee Hazlewood - Mansion Of Tears
EXTD=
EXTT0=
EXTT1=
EXTT2=
EXTT3=
EXTT4=
EXTT5=
EXTT6=
EXTT7=
EXTT8=
EXTT9=
EXTT10=
EXTT11=
EXTT12=
EXTT13=
EXTT14=
EXTT15=
EXTT16=
EXTT17=
EXTT18=
EXTT19=
PLAYORDER=
